<svg width="169" height="20" viewBox="0 0 169 20" fill="none" xmlns="http://www.w3.org/2000/svg">
<path d="M0.523438 19V1.9375H5.77344C7.27344 1.9375 8.61328 2.27734 9.79297 2.95703C10.9805 3.62891 11.9062 4.58984 12.5703 5.83984C13.2344 7.08203 13.5664 8.49609 13.5664 10.082V10.8672C13.5664 12.4531 13.2383 13.8633 12.582 15.0977C11.9336 16.332 11.0156 17.2891 9.82812 17.9688C8.64062 18.6484 7.30078 18.9922 5.80859 19H0.523438ZM4.03906 4.78516V16.1758H5.73828C7.11328 16.1758 8.16406 15.7266 8.89062 14.8281C9.61719 13.9297 9.98828 12.6445 10.0039 10.9727V10.0703C10.0039 8.33594 9.64453 7.02344 8.92578 6.13281C8.20703 5.23438 7.15625 4.78516 5.77344 4.78516H4.03906ZM26.3984 11.6055H19.6484V16.1758H27.5703V19H16.1328V1.9375H27.5469V4.78516H19.6484V8.85156H26.3984V11.6055ZM38.4805 14.5234C38.4805 13.8594 38.2461 13.3516 37.7773 13C37.3086 12.6406 36.4648 12.2656 35.2461 11.875C34.0273 11.4766 33.0625 11.0859 32.3516 10.7031C30.4141 9.65625 29.4453 8.24609 29.4453 6.47266C29.4453 5.55078 29.7031 4.73047 30.2188 4.01172C30.7422 3.28516 31.4883 2.71875 32.457 2.3125C33.4336 1.90625 34.5273 1.70312 35.7383 1.70312C36.957 1.70312 38.043 1.92578 38.9961 2.37109C39.9492 2.80859 40.6875 3.42969 41.2109 4.23438C41.7422 5.03906 42.0078 5.95312 42.0078 6.97656H38.4922C38.4922 6.19531 38.2461 5.58984 37.7539 5.16016C37.2617 4.72266 36.5703 4.50391 35.6797 4.50391C34.8203 4.50391 34.1523 4.6875 33.6758 5.05469C33.1992 5.41406 32.9609 5.89062 32.9609 6.48438C32.9609 7.03906 33.2383 7.50391 33.793 7.87891C34.3555 8.25391 35.1797 8.60547 36.2656 8.93359C38.2656 9.53516 39.7227 10.2812 40.6367 11.1719C41.5508 12.0625 42.0078 13.1719 42.0078 14.5C42.0078 15.9766 41.4492 17.1367 40.332 17.9805C39.2148 18.8164 37.7109 19.2344 35.8203 19.2344C34.5078 19.2344 33.3125 18.9961 32.2344 18.5195C31.1562 18.0352 30.332 17.375 29.7617 16.5391C29.1992 15.7031 28.918 14.7344 28.918 13.6328H32.4453C32.4453 15.5156 33.5703 16.457 35.8203 16.457C36.6562 16.457 37.3086 16.2891 37.7773 15.9531C38.2461 15.6094 38.4805 15.1328 38.4805 14.5234ZM48.1367 19H44.6211V1.9375H48.1367V19ZM64.9062 16.8438C64.2734 17.6016 63.3789 18.1914 62.2227 18.6133C61.0664 19.0273 59.7852 19.2344 58.3789 19.2344C56.9023 19.2344 55.6055 18.9141 54.4883 18.2734C53.3789 17.625 52.5195 16.6875 51.9102 15.4609C51.3086 14.2344 51 12.793 50.9844 11.1367V9.97656C50.9844 8.27344 51.2695 6.80078 51.8398 5.55859C52.418 4.30859 53.2461 3.35547 54.3242 2.69922C55.4102 2.03516 56.6797 1.70312 58.1328 1.70312C60.1562 1.70312 61.7383 2.1875 62.8789 3.15625C64.0195 4.11719 64.6953 5.51953 64.9062 7.36328H61.4844C61.3281 6.38672 60.9805 5.67188 60.4414 5.21875C59.9102 4.76562 59.1758 4.53906 58.2383 4.53906C57.043 4.53906 56.1328 4.98828 55.5078 5.88672C54.8828 6.78516 54.5664 8.12109 54.5586 9.89453V10.9844C54.5586 12.7734 54.8984 14.125 55.5781 15.0391C56.2578 15.9531 57.2539 16.4102 58.5664 16.4102C59.8867 16.4102 60.8281 16.1289 61.3906 15.5664V12.625H58.1914V10.0352H64.9062V16.8438ZM81.6406 19H78.125L71.2812 7.77344V19H67.7656V1.9375H71.2812L78.1367 13.1875V1.9375H81.6406V19ZM90.5315 14.248C90.5315 13.048 91.3715 12.16 92.4755 11.344C93.7475 12.712 95.2595 14.032 96.7715 15.304C95.8595 16.12 94.8515 16.6 93.8435 16.6C91.9235 16.6 90.5315 15.808 90.5315 14.248ZM92.2595 5.296C92.2595 3.952 92.9795 3.208 94.1315 3.208C95.1875 3.208 95.7875 3.904 95.7875 4.96C95.7875 6.232 94.7315 7.12 93.3875 7.96C92.6915 7.024 92.2595 6.136 92.2595 5.296ZM103.804 16.552C103.156 16.192 102.1 15.544 100.924 14.704C102.004 12.976 102.724 11.152 103.132 9.088H100.012C99.7955 10.624 99.3395 11.848 98.6915 12.952C97.4195 11.968 96.0755 10.864 94.9475 9.736C96.7715 8.56 98.4755 7.168 98.4755 4.84C98.4755 2.368 96.7475 0.879999 94.0355 0.879999C91.4195 0.879999 89.4275 2.608 89.4275 5.416C89.4275 6.784 90.0035 8.104 90.9155 9.424C89.0675 10.6 87.3875 11.992 87.3875 14.344C87.3875 17.248 89.5235 19.288 93.5315 19.288C95.9075 19.288 97.6115 18.496 99.0035 17.152C100.252 18.136 101.212 18.712 102.244 19.288L103.804 16.552ZM122.105 13.3164C121.973 15.1523 121.293 16.5977 120.066 17.6523C118.848 18.707 117.238 19.2344 115.238 19.2344C113.051 19.2344 111.328 18.5 110.07 17.0312C108.82 15.5547 108.195 13.5312 108.195 10.9609V9.91797C108.195 8.27734 108.484 6.83203 109.062 5.58203C109.641 4.33203 110.465 3.375 111.535 2.71094C112.613 2.03906 113.863 1.70312 115.285 1.70312C117.254 1.70312 118.84 2.23047 120.043 3.28516C121.246 4.33984 121.941 5.82031 122.129 7.72656H118.613C118.527 6.625 118.219 5.82812 117.688 5.33594C117.164 4.83594 116.363 4.58594 115.285 4.58594C114.113 4.58594 113.234 5.00781 112.648 5.85156C112.07 6.6875 111.773 7.98828 111.758 9.75391V11.043C111.758 12.8867 112.035 14.2344 112.59 15.0859C113.152 15.9375 114.035 16.3633 115.238 16.3633C116.324 16.3633 117.133 16.1172 117.664 15.625C118.203 15.125 118.512 14.3555 118.59 13.3164H122.105ZM138.43 10.8555C138.43 12.5352 138.133 14.0078 137.539 15.2734C136.945 16.5391 136.094 17.5156 134.984 18.2031C133.883 18.8906 132.617 19.2344 131.188 19.2344C129.773 19.2344 128.512 18.8945 127.402 18.2148C126.293 17.5352 125.434 16.5664 124.824 15.3086C124.215 14.043 123.906 12.5898 123.898 10.9492V10.1055C123.898 8.42578 124.199 6.94922 124.801 5.67578C125.41 4.39453 126.266 3.41406 127.367 2.73438C128.477 2.04687 129.742 1.70312 131.164 1.70312C132.586 1.70312 133.848 2.04687 134.949 2.73438C136.059 3.41406 136.914 4.39453 137.516 5.67578C138.125 6.94922 138.43 8.42188 138.43 10.0938V10.8555ZM134.867 10.082C134.867 8.29297 134.547 6.93359 133.906 6.00391C133.266 5.07422 132.352 4.60938 131.164 4.60938C129.984 4.60938 129.074 5.07031 128.434 5.99219C127.793 6.90625 127.469 8.25 127.461 10.0234V10.8555C127.461 12.5977 127.781 13.9492 128.422 14.9102C129.062 15.8711 129.984 16.3516 131.188 16.3516C132.367 16.3516 133.273 15.8906 133.906 14.9688C134.539 14.0391 134.859 12.6875 134.867 10.9141V10.082ZM140.984 19V1.9375H146.234C147.734 1.9375 149.074 2.27734 150.254 2.95703C151.441 3.62891 152.367 4.58984 153.031 5.83984C153.695 7.08203 154.027 8.49609 154.027 10.082V10.8672C154.027 12.4531 153.699 13.8633 153.043 15.0977C152.395 16.332 151.477 17.2891 150.289 17.9688C149.102 18.6484 147.762 18.9922 146.27 19H140.984ZM144.5 4.78516V16.1758H146.199C147.574 16.1758 148.625 15.7266 149.352 14.8281C150.078 13.9297 150.449 12.6445 150.465 10.9727V10.0703C150.465 8.33594 150.105 7.02344 149.387 6.13281C148.668 5.23438 147.617 4.78516 146.234 4.78516H144.5ZM166.859 11.6055H160.109V16.1758H168.031V19H156.594V1.9375H168.008V4.78516H160.109V8.85156H166.859V11.6055Z" fill="black"/>
</svg>
